<svg width="285" height="40" viewBox="0 0 285 40" fill="none" xmlns="http://www.w3.org/2000/svg">
<path d="M170.163 39.4716C168.931 39.4716 168.1 39.3163 167.638 39.0368C167.176 38.7573 166.961 38.2604 166.961 37.6083C166.961 36.6145 167.515 35.8691 168.592 35.3722C169.424 34.9685 170.009 34.5648 170.317 34.13C170.624 33.6952 170.871 32.8878 170.963 31.7698C171.055 30.6517 171.117 28.6642 171.117 25.9002V11.6766C171.117 10.1548 171.055 9.00577 170.963 8.22938C170.871 7.45298 170.624 6.86292 170.286 6.45919C169.947 6.05546 169.393 5.65174 168.623 5.27907C167.515 4.78217 166.961 4.03683 166.961 3.04304C166.961 2.04925 167.176 1.92503 167.607 1.61447C168.038 1.33497 168.87 1.17969 170.101 1.17969L177.829 1.2418C178.968 1.2418 179.83 1.58341 180.384 2.23559L195.378 19.689C195.778 20.1238 196.178 20.3412 196.609 20.3412C197.04 20.3412 197.009 20.248 197.163 20.0306C197.317 19.8443 197.41 19.5337 197.41 19.1921V11.6766C197.41 10.1548 197.348 9.00577 197.256 8.22938C197.163 7.45298 196.917 6.86292 196.578 6.45919C196.24 6.05546 195.685 5.65174 194.916 5.27907C193.807 4.78217 193.253 4.03683 193.253 3.04304C193.253 2.04925 193.469 1.92503 193.9 1.61447C194.331 1.33497 195.162 1.17969 196.394 1.17969H203.044C204.275 1.17969 205.106 1.33497 205.568 1.61447C206.03 1.89397 206.246 2.39087 206.246 3.04304C206.246 4.03683 205.691 4.78217 204.614 5.27907C203.783 5.71385 203.198 6.14863 202.89 6.58341C202.551 7.0182 202.336 7.82565 202.243 8.94366C202.12 10.0927 202.089 12.0493 202.089 14.8132V37.5151C202.089 38.1673 201.935 38.6642 201.597 39.0368C201.258 39.4095 200.858 39.5958 200.365 39.5958C199.595 39.5958 198.98 39.2853 198.487 38.6642L177.521 15.0306C177.182 14.689 176.905 14.5337 176.597 14.5337C176.135 14.5337 175.889 14.8753 175.889 15.5586V28.9747C175.889 30.4965 175.951 31.6455 176.074 32.4219C176.197 33.1983 176.412 33.7884 176.751 34.2232C177.09 34.658 177.613 35.0306 178.383 35.3722C179.491 35.8691 180.045 36.6145 180.045 37.6083C180.045 38.6021 179.83 38.7263 179.399 39.0368C178.968 39.3163 178.137 39.4716 176.905 39.4716H170.193H170.163Z" fill="white"/>
<path d="M208.986 39.1925C208.493 38.8509 208.216 38.3851 208.216 37.7329C208.216 37.0807 208.432 36.5217 208.832 36.0559C209.232 35.59 209.94 35.1863 210.925 34.7826C211.541 34.5341 212.095 34.1925 212.588 33.7888C213.08 33.3851 213.727 32.6708 214.466 31.6149L221.455 22.0186C221.793 21.5838 221.947 21.0869 221.947 20.4968C221.947 19.9068 221.793 19.5341 221.516 19.1304L214.959 9.59623C214.281 8.57138 213.665 7.8571 213.142 7.39126C212.619 6.92542 211.911 6.52169 211.018 6.11796C210.464 5.86952 210.063 5.55896 209.786 5.21734C209.509 4.87573 209.386 4.34778 209.386 3.66455C209.386 2.67076 209.755 2.04964 210.464 1.73908C211.172 1.42852 212.434 1.27324 214.25 1.27324H225.888C227.489 1.27324 228.567 1.42852 229.152 1.77014C229.737 2.11175 230.044 2.6397 230.044 3.4161C230.044 4.1925 229.921 4.34778 229.675 4.68939C229.429 5.03101 229.028 5.34157 228.474 5.65213C227.858 5.99374 227.397 6.3043 227.058 6.61486C226.719 6.92542 226.565 7.26703 226.565 7.67076C226.565 8.07449 226.689 8.29188 226.935 8.66455L229.86 12.8571C230.198 13.2919 230.475 13.5093 230.783 13.5093C231.091 13.5093 231.399 13.2608 231.769 12.795L234.355 8.97511C234.755 8.35399 234.94 7.76393 234.94 7.23598C234.94 6.42852 234.57 5.80741 233.8 5.37262C233.092 4.9689 232.538 4.59622 232.2 4.25461C231.861 3.91299 231.676 3.54032 231.676 3.1366C231.676 2.3602 232.015 1.8633 232.661 1.61486C233.308 1.36641 234.324 1.24219 235.74 1.24219H242.944C244.084 1.24219 244.915 1.39747 245.438 1.73908C245.931 2.0807 246.208 2.54654 246.208 3.19871C246.208 3.85088 245.992 4.34778 245.592 4.78256C245.192 5.21734 244.484 5.68318 243.499 6.14902C242.914 6.39747 242.359 6.73908 241.836 7.14281C241.313 7.54654 240.666 8.29188 239.927 9.28567L234.416 16.7701C234.078 17.2049 233.924 17.6708 233.924 18.1366C233.924 18.6024 234.047 18.913 234.262 19.2236L242.575 31.3354C243.283 32.3913 243.899 33.1055 244.361 33.5093C244.822 33.913 245.531 34.3788 246.454 34.8757C247.07 35.2174 247.501 35.5279 247.716 35.8695C247.963 36.2111 248.055 36.677 248.055 37.3292C248.055 37.9813 247.716 38.8198 247.07 39.1925C246.393 39.5652 245.069 39.7515 243.098 39.7515H231.307C229.983 39.7515 228.998 39.5962 228.351 39.2857C227.705 38.9751 227.397 38.4161 227.397 37.6087C227.397 36.8012 227.52 36.677 227.797 36.3354C228.074 35.9937 228.536 35.6211 229.182 35.2795C229.737 35 230.106 34.7205 230.383 34.472C230.629 34.2236 230.753 33.8819 230.753 33.4782C230.753 33.0745 230.568 32.5465 230.168 31.9565L226.288 26.2733C225.827 25.59 225.426 25.2484 225.088 25.2484C224.749 25.2484 224.472 25.5279 224.072 26.0559L220.008 31.9875C219.577 32.6397 219.361 33.2298 219.361 33.7267C219.361 34.5031 219.761 35.1242 220.562 35.59C221.27 35.9937 221.824 36.3664 222.163 36.708C222.501 37.0496 222.686 37.4223 222.686 37.826C222.686 38.6024 222.348 39.0993 221.701 39.3478C221.054 39.5962 220.038 39.7205 218.622 39.7205H211.418C210.279 39.7205 209.448 39.5652 208.924 39.2236L208.986 39.1925Z" fill="white"/>
<path d="M256.583 38.9752C255.906 38.6957 255.598 38.1367 255.598 37.3292C255.598 36.5217 255.783 36.4907 256.183 36.087C256.583 35.7143 257.076 35.3106 257.692 34.8447C258.985 34.0062 259.847 33.1988 260.278 32.3913C260.709 31.5839 260.924 30.4348 260.924 28.9441V7.79503C260.924 7.01863 260.801 6.49068 260.586 6.21118C260.339 5.93168 259.97 5.7764 259.477 5.7764H258.184C257.291 5.7764 256.583 6.14907 256.06 6.86335C255.567 7.57764 254.828 9.00621 253.905 11.118C253.258 12.6087 252.642 13.6646 252.057 14.2857C251.472 14.9068 250.795 15.2174 249.995 15.2174C248.394 15.2174 247.624 14.2857 247.624 12.4224C247.624 10.559 248.086 8.91304 249.04 5.93168C250.272 1.95652 251.596 0 252.981 0C254.366 0 253.782 0.0621113 254.182 0.186335C254.582 0.310559 254.828 0.403727 254.951 0.434783C256.183 0.931678 257.414 1.21118 258.677 1.21118H273.547C274.594 1.21118 275.425 1.14907 276.01 1.02485C276.595 0.900622 277.242 0.714286 277.888 0.465839C278.596 0.186335 279.181 0.0310554 279.612 0.0310554C280.29 0.0310554 280.936 0.46584 281.49 1.3354C282.075 2.20497 282.722 3.75776 283.43 5.96273C284.477 9.13043 285 11.3665 285 12.6708C285 13.9752 284.23 15.2484 282.722 15.2484C281.213 15.2484 281.275 14.9379 280.628 14.3168C279.982 13.6957 279.366 12.6398 278.719 11.1491C278.042 9.62733 277.519 8.54037 277.211 7.8882C276.872 7.26708 276.503 6.73913 276.102 6.36646C275.702 5.99379 275.179 5.80745 274.563 5.80745H273.27C272.685 5.80745 272.285 5.96273 272.039 6.24224C271.792 6.52174 271.7 7.04969 271.7 7.82609V28.9752C271.7 30.528 271.915 31.7081 272.316 32.4534C272.716 33.2298 273.609 34.0062 274.933 34.8447C275.702 35.3106 276.226 35.7143 276.564 36.087C276.903 36.4286 277.057 36.8634 277.057 37.3603C277.057 37.8571 276.78 38.5714 276.226 38.913C275.671 39.2547 274.625 39.441 273.055 39.441L260.185 39.3789C258.461 39.3789 257.261 39.2236 256.583 38.9441V38.9752Z" fill="white"/>
<path d="M44.4265 38.2301C42.3022 37.05 40.6704 35.4351 39.5005 33.3854C38.3306 31.3357 37.7456 28.9754 37.7456 26.3667C37.7456 23.758 38.3306 21.3978 39.5005 19.3171C40.6704 17.2363 42.3022 15.6214 44.3957 14.4413C46.4893 13.2612 48.8907 12.7021 51.6 12.7021C54.3093 12.7021 56.6491 13.2922 58.7735 14.4413C60.867 15.6214 62.4988 17.2363 63.6687 19.3171C64.8386 21.3978 65.3928 23.758 65.3928 26.3667C65.3928 28.9754 64.8078 31.3357 63.6687 33.4164C62.4988 35.4972 60.8978 37.1121 58.7735 38.2612C56.6799 39.4102 54.2785 40.0003 51.6 40.0003C48.9215 40.0003 46.52 39.4102 44.3957 38.2612L44.4265 38.2301ZM57.2033 34.7829C58.4964 33.199 59.1429 31.1183 59.1429 28.4785C59.1429 25.8388 58.8043 24.4102 58.1269 22.4226C57.4496 20.4351 56.4952 18.7891 55.2637 17.4848C54.0014 16.1804 52.5852 15.5282 51.015 15.5282C49.4449 15.5282 47.2282 16.3046 45.9043 17.8885C44.6112 19.4723 43.9647 21.5531 43.9647 24.1928C43.9647 26.8326 44.3033 28.2612 44.9807 30.2798C45.658 32.2984 46.6124 33.9133 47.8439 35.2177C49.1062 36.491 50.5224 37.1431 52.0926 37.1431C53.6628 37.1431 55.8794 36.3667 57.2033 34.7829Z" fill="white"/>
<path d="M91.2235 19.0377C91.2235 20.2179 90.9156 21.2117 90.3615 22.0812C89.7765 22.9508 88.9452 23.3545 87.8677 23.3545C86.7901 23.3545 86.6054 23.1371 86.1128 22.6713C85.6202 22.2055 85.4355 21.5843 85.5278 20.7458C85.6818 20.311 85.7433 19.8763 85.7433 19.4415C85.7433 18.7893 85.5278 18.2303 85.1584 17.7645C84.7581 17.2986 84.0808 17.0812 83.0956 17.0812C82.1104 17.0812 81.3099 17.4539 80.4787 18.1371C80.14 18.4166 79.8321 18.7582 79.5551 19.1309C79.124 19.6899 78.7546 20.3732 78.4159 21.1496C77.8925 22.4539 77.6154 23.9446 77.6154 25.6527V32.3297C77.6154 33.4477 77.677 34.2862 77.7694 34.8141C77.8925 35.3421 78.1388 35.7769 78.5391 36.1185C78.7854 36.3359 79.0932 36.4601 79.4319 36.5533C79.7706 36.6464 79.9553 36.6464 80.2016 36.6464H80.294C81.0636 36.6464 81.7102 37.2986 81.7102 38.075C81.7102 38.8514 81.0636 39.5036 80.294 39.5036H69.2104C68.7486 39.5036 68.3176 39.2551 68.0713 38.9135C67.9174 38.6651 67.7942 38.3856 67.7942 38.075C67.7942 37.6713 67.9482 37.2986 68.2253 37.0502C68.4716 36.8017 68.841 36.6154 69.2104 36.6154C69.5799 36.6154 69.3952 36.6154 69.4875 36.6154C69.8878 36.6154 70.288 36.4912 70.6267 36.2738C70.9653 36.0564 70.7498 36.1806 70.8114 36.1185C71.2116 35.7769 71.4887 35.3421 71.5811 34.8452C71.6735 34.3483 71.7042 33.5098 71.7042 32.3918V19.4725C71.7042 18.6651 71.6119 18.075 71.4272 17.7334C71.2424 17.3607 70.873 17.1744 70.288 17.1744H69.0873C68.6871 17.1744 68.3792 17.1744 68.1329 17.0812C68.0097 17.0812 67.9174 17.0191 67.825 16.9881C67.6403 16.8949 67.5479 16.7707 67.4863 16.6154C67.4863 16.5533 67.4556 16.4601 67.4556 16.3669C67.4556 16.0564 67.5479 15.8079 67.7327 15.5905C67.7942 15.5284 67.8558 15.4663 67.9174 15.4353C68.2253 15.2179 68.6563 15.0005 69.2412 14.7831C70.1649 14.4725 70.9653 14.193 71.6734 13.9756C72.3816 13.7582 72.9665 13.5719 73.4591 13.4477C73.6439 13.3856 73.7978 13.3545 73.9517 13.3235C74.6906 13.1371 75.3372 13.044 75.8298 13.044C76.3224 13.044 76.9381 13.1682 77.1844 13.3856C77.4307 13.634 77.5539 14.0377 77.5539 14.6278V17.485C77.5539 18.075 77.6154 18.3545 77.7694 18.3545C77.9233 18.3545 78.0465 17.9197 78.4775 17.0812C78.5083 17.0191 78.5391 16.9259 78.6006 16.8638C79.124 15.87 79.9553 14.9073 81.0944 14.0377C82.2336 13.1682 83.6806 12.7334 85.4663 12.7334C87.2519 12.7334 88.6682 13.2924 89.6841 14.4415C90.6693 15.5595 91.1619 17.1123 91.1619 19.0999L91.2235 19.0377Z" fill="white"/>
<path d="M107.541 38.0742C107.541 38.8817 106.894 39.5028 106.124 39.5028H95.041C94.5792 39.5028 94.1481 39.2543 93.9018 38.9127C93.7479 38.6643 93.6248 38.3848 93.6248 38.0742C93.6248 37.6705 93.7787 37.2978 94.0558 37.0494C94.3021 36.8009 94.6715 36.6146 95.041 36.6146C95.4104 36.6146 95.2257 36.6146 95.3181 36.6146C95.7183 36.6146 96.1185 36.4904 96.4572 36.273C96.5188 36.2109 96.5803 36.1798 96.6419 36.1177C97.0422 35.7761 97.3192 35.3413 97.4116 34.8444C97.504 34.3475 97.5348 33.509 97.5348 32.391V29.2854V19.4407C97.5348 18.6332 97.4424 18.0432 97.2577 17.7015C97.0729 17.3289 96.7035 17.1425 96.1185 17.1425L94.8563 17.2047H94.8255C94.3944 17.2047 94.0558 17.1736 93.8403 17.0804C93.8403 17.0804 93.8403 17.0804 93.8095 17.0804C93.7787 17.0804 93.7479 17.0804 93.7171 17.0494C93.6863 17.0494 93.6555 17.0183 93.6248 16.9873C93.6248 16.9873 93.594 16.9873 93.5632 16.9562C93.5632 16.9562 93.5324 16.9252 93.5016 16.8941C93.4092 16.7699 93.3477 16.6146 93.3477 16.4283C93.3477 16.3972 93.3477 16.3661 93.3477 16.3661C93.3477 15.9935 93.5016 15.714 93.7787 15.5276C94.0558 15.3102 94.5176 15.0929 95.1333 14.8444L96.7035 14.3475C99.2589 13.509 100.952 13.0742 101.753 13.0742C102.553 13.0742 102.707 13.1984 102.984 13.3848C102.984 13.3848 103.015 13.3848 103.046 13.4158C103.046 13.4158 103.077 13.4158 103.107 13.4469C103.107 13.4469 103.169 13.509 103.169 13.5401C103.292 13.6953 103.384 13.9127 103.446 14.1922C103.446 14.3475 103.477 14.5028 103.477 14.6891V29.3475V32.422C103.477 33.5401 103.538 34.3786 103.631 34.9065C103.754 35.4345 104 35.8693 104.4 36.2109C104.647 36.4283 104.955 36.5835 105.293 36.6457C105.54 36.7078 105.817 36.7078 106.063 36.7078H106.155C106.925 36.7078 107.571 37.3599 107.571 38.1363L107.541 38.0742Z" fill="white"/>
<path d="M142.731 38.2301C140.607 37.05 138.975 35.4351 137.805 33.3854C136.635 31.3357 136.05 28.9754 136.05 26.3667C136.05 23.758 136.635 21.3978 137.805 19.3171C138.975 17.2363 140.607 15.6214 142.7 14.4413C144.794 13.2612 147.195 12.7021 149.904 12.7021C152.614 12.7021 154.954 13.2922 157.078 14.4413C159.171 15.6214 160.803 17.2363 161.973 19.3171C163.143 21.3978 163.697 23.758 163.697 26.3667C163.697 28.9754 163.112 31.3357 161.973 33.4164C160.803 35.4972 159.202 37.1121 157.078 38.2612C154.984 39.4102 152.583 40.0003 149.904 40.0003C147.226 40.0003 144.824 39.4102 142.7 38.2612L142.731 38.2301ZM155.508 34.7829C156.801 33.199 157.447 31.1183 157.447 28.4785C157.447 25.8388 157.109 24.4102 156.431 22.4226C155.754 20.4351 154.8 18.7891 153.568 17.4848C152.306 16.1804 150.89 15.5282 149.319 15.5282C147.749 15.5282 145.533 16.3046 144.209 17.8885C142.916 19.4723 142.269 21.5531 142.269 24.1928C142.269 26.8326 142.608 28.2612 143.285 30.2798C143.962 32.2984 144.917 33.9133 146.148 35.2177C147.411 36.491 148.827 37.1431 150.397 37.1431C151.967 37.1431 154.184 36.3667 155.508 34.7829Z" fill="white"/>
<path d="M33.8663 9.56517C36.1447 9.56517 37.9918 7.70201 37.9918 5.40368C37.9918 3.10535 36.1447 1.24219 33.8663 1.24219C31.5878 1.24219 29.7407 3.10535 29.7407 5.40368C29.7407 7.70201 31.5878 9.56517 33.8663 9.56517Z" fill="#EC135D"/>
<path d="M37.961 38.0749C37.961 38.8823 37.3145 39.5034 36.5448 39.5034H21.7668C20.9971 39.5034 20.3505 38.8513 20.3505 38.0749C20.3505 37.2674 20.9971 36.6463 21.7668 36.6463C24.4453 36.6463 26.6312 34.4413 26.6312 31.7084V21.9879C26.6312 18.4786 23.8295 15.6215 20.3505 15.6215H17.5181C14.0391 15.6215 11.2374 18.4786 11.2374 21.9879V31.6463C11.2374 34.4413 13.4541 36.6774 16.1942 36.6774C16.9639 36.6774 17.6105 37.3295 17.6105 38.1059C17.6105 38.9134 16.9639 39.5345 16.1942 39.5345H1.41622C0.646537 39.5345 0 38.8823 0 38.1059C0 37.2985 0.646537 36.6774 1.41622 36.6774C3.57135 36.6774 5.29545 34.9072 5.29545 32.7333V8.10593C5.29545 5.93202 3.54056 4.16183 1.41622 4.16183C0.646537 4.16183 0 3.50966 0 2.73326C0 1.92581 0.646537 1.30469 1.41622 1.30469H16.1942C16.9639 1.30469 17.6105 1.95686 17.6105 2.73326C17.6105 3.54071 16.9639 4.16183 16.1942 4.16183H15.1475C12.9923 4.16183 11.2682 5.93202 11.2682 8.10593V8.78916C11.2682 10.9631 13.0231 12.7333 15.1475 12.7333H23.3369C28.4477 12.7333 32.5732 16.9258 32.5732 22.1121V32.7022C32.5732 34.8761 34.3281 36.6463 36.4524 36.6463H36.5448C37.3145 36.6463 37.961 37.2985 37.961 38.0749Z" fill="white"/>
<path d="M99.7515 9.56517C102.03 9.56517 103.877 7.70201 103.877 5.40368C103.877 3.10535 102.03 1.24219 99.7515 1.24219C97.473 1.24219 95.626 3.10535 95.626 5.40368C95.626 7.70201 97.473 9.56517 99.7515 9.56517Z" fill="white"/>
<path d="M133.002 30.2796C133.187 30.497 133.31 30.9318 133.31 31.615C133.31 32.2982 133.156 33.2609 132.879 34.7206C132.879 34.7516 132.417 37.3293 132.417 37.3293C132.202 38.5094 131.155 39.379 129.954 39.379H111.636C110.527 39.379 110.004 39.0063 110.004 38.292C110.004 37.5777 110.25 37.205 110.712 36.5839L125.428 16.9566C125.551 16.7703 125.582 16.615 125.582 16.5218C125.582 16.1802 125.428 16.0249 125.09 16.0249H116.9C116.315 16.0249 115.884 16.1181 115.546 16.3355C115.238 16.5529 114.961 16.9566 114.683 17.5467C114.437 18.1678 114.129 19.1305 113.76 20.497C113.514 21.087 113.236 21.4908 112.99 21.7392C112.744 21.9877 112.374 22.1119 111.943 22.1119C111.512 22.1119 111.297 21.9877 111.081 21.7703C110.897 21.5529 110.773 21.1181 110.773 20.4349C110.773 19.7516 110.897 18.851 111.112 17.764V17.7019L111.574 15.1864C111.789 14.0063 112.836 13.1367 114.037 13.1367H132.294C132.725 13.1367 133.064 13.2299 133.279 13.4473C133.495 13.6336 133.618 13.8821 133.618 14.1305C133.618 14.5032 133.433 15.0001 133.002 15.6212L118.224 35.528C118.07 35.7454 118.009 35.9007 118.009 36.0249C118.009 36.3044 118.193 36.4597 118.624 36.4597H126.998C127.645 36.4597 128.138 36.3355 128.476 36.1181C128.815 35.9007 129.092 35.4349 129.369 34.7827C129.646 34.0995 129.985 32.9814 130.385 31.4597C130.601 30.9007 130.847 30.528 131.124 30.3106C131.401 30.0932 131.74 29.969 132.202 29.969C132.663 29.969 132.787 30.0932 133.002 30.3106V30.2796Z" fill="white"/>
</svg>
